inDegrees=yes
DataType=double
version=3
OpenSimVersion=4.5-2024-07-22-fc2981e9e
endheader
time	pelvis_tx	pelvis_ty	pelvis_tz	pelvis_tilt	pelvis_list	pelvis_rotation	hip_flexion_r	hip_adduction_r	hip_rotation_r	knee_angle_r	ankle_angle_r	subtalar_angle_r	mtp_angle_r	hip_flexion_l	hip_adduction_l	hip_rotation_l	knee_angle_l	ankle_angle_l	subtalar_angle_l	mtp_angle_l	lumbar_extension	lumbar_bending	lumbar_rotation	ground_force_vx	ground_force_vy	ground_force_vz	ground_force_px	ground_force_py	ground_force_pz	ground_force_vx	ground_force_vy	ground_force_vz	ground_force_px	ground_force_py	ground_force_pz	ground_torque_x	ground_torque_y	ground_torque_z	ground_torque_x	ground_torque_y	ground_torque_z	ground_marker_px	ground_marker_py	ground_marker_pz	ground_marker_px	ground_marker_py	ground_marker_pz	ground_marker_px	ground_marker_py	ground_marker_pz	ground_marker_px	ground_marker_py	ground_marker_pz	ground_marker_px	ground_marker_py	ground_marker_pz	ground_marker_px	ground_marker_py	ground_marker_pz	ground_marker_px	ground_marker_py	ground_marker_pz	ground_marker_px	ground_marker_py	ground_marker_pz	ground_marker_px	ground_marker_py	ground_marker_pz	ground_marker_px	ground_marker_py	ground_marker_pz	ground_marker_px	ground_marker_py	ground_marker_pz	ground_marker_px	ground_marker_py	ground_marker_pz	ground_marker_px	ground_marker_py	ground_marker_pz	ground_marker_px	ground_marker_py	ground_marker_pz	ground_marker_px	ground_marker_py	ground_marker_pz	ground_marker_px	ground_marker_py	ground_marker_pz	ground_marker_px	ground_marker_py	ground_marker_pz	ground_marker_px	ground_marker_py	ground_marker_pz	ground_marker_px	ground_marker_py	ground_marker_pz	ground_marker_px	ground_marker_py	ground_marker_pz	ground_marker_px	ground_marker_py	ground_marker_pz	ground_marker_px	ground_marker_py	ground_marker_pz	ground_marker_px	ground_marker_py	ground_marker_pz	ground_marker_px	ground_marker_py	ground_marker_pz	ground_marker_px	ground_marker_py	ground_marker_pz	ground_marker_px	ground_marker_py	ground_marker_pz	ground_marker_px	ground_marker_py	ground_marker_pz	ground_marker_px	ground_marker_py	ground_marker_pz	ground_marker_px	ground_marker_py	ground_marker_pz	ground_marker_px	ground_marker_py	ground_marker_pz	ground_marker_px	ground_marker_py	ground_marker_pz	ground_marker_px	ground_marker_py	ground_marker_pz	ground_marker_px	ground_marker_py	ground_marker_pz	ground_marker_px	ground_marker_py	ground_marker_pz	ground_marker_px	ground_marker_py	ground_marker_pz	ground_marker_px	ground_marker_py	ground_marker_pz	ground_marker_px	ground_marker_py	ground_marker_pz
0.8333332601739131	1.954205726762033	0.9249353145743958	-0.1887072605179785	-5.816462485512476	-3.62597199032859	2.647769353784834	24.21046751486813	0.2850087705417161	3.279694128190222	-35.86766441642661	1.342797245839993	-2.494001135916546e-10	1.520658791112781e-09	0.9241118576881396	2.579878013625727	-5.369221737492637	-2.131964936756336	3.714137307351952	-1.754486471014927e-09	-2.023635040088313e-09	-5.695355608040538	2.808659801354461	-0.729405165060488	-0.08358534771888686	3.889080851371434	0.2523797208524275	1.53385611164146	2.309408403425104e-09	-0.1311037150143197	-0.4803896014216156	-0.4371658395332952	0.118690543736898	1.524790998498159	-1.41923009525628e-09	-0.1299326388329587	8.257066279327849e-09	0.01796460516212762	-2.610277574895309e-11	7.644033573859921e-09	-0.01457932192074362	3.310823660066544e-09	2.094282633876575	0.6941027933983562	-0.1814571232995738	2.13004875887236	0.6953049370094891	-0.1805186587028559	2.1040204774331	0.6985086019817986	-0.1815837761030043	2.120518872438665	0.696749052470231	-0.1805405853505278	2.142281849545025	0.6921659453749819	-0.1821525908228893	2.101193631747969	0.6949177548095349	-0.1819966223585149	2.122137298813352	0.6962385446082113	-0.182132768117999	2.110198749729432	0.6947080983135107	-0.1827913178944791	2.115063988302468	0.6943373854960264	-0.1808264520260634	2.111651250103519	0.6975636432168528	-0.1818517368788135	2.123268444719125	0.6965359933534429	-0.1837684138351376	2.106621024835219	0.6954571673621205	-0.1825368050552415	2.125012343361636	0.6988457473860166	-0.1813313745716211	2.110151816119065	0.6991265182396009	-0.1814180506242148	2.092602662237288	0.6960479607089882	-0.1806943209366128	2.130135171224601	0.7029831029425785	-0.1822260147636676	2.103126948808463	0.6942763108044434	-0.1842842120652115	2.136680489707802	0.6963120777191201	-0.1821158738351736	2.098636206335651	0.686802371633594	-0.1823489705563323	2.102001066382751	0.6971413517820173	-0.1818785558110313	2.107092738445852	0.6949457393765218	-0.1808215135227316	2.133129867231796	0.7023164571162567	-0.1816071036746393	2.107943532188189	0.6979335557223231	-0.1827615794971607	2.097000843361447	0.6949846240694789	-0.1823319021972594	2.120929263206063	0.6938856397620311	-0.1802151007282242	2.112575331565093	0.6919183520621696	-0.1823569425240547	2.112797116626088	0.6928726589854627	-0.1809310054909797	2.107122125213801	0.6940612897961664	-0.1816251801152162	2.108046755261278	0.699985010621999	-0.1830762238444563	2.12059813371309	0.6930610909202103	-0.1819463050933754	2.126627194700507	0.6926708751882313	-0.1833951215246623	2.104519650828408	0.6967574036835843	-0.1826201819281006	2.107709552716837	0.6939605762729446	-0.181688468548223	2.128364045099711	0.6915366801755477	-0.1831485818797686	2.101011383871541	0.6978566264853756	-0.1803789629100088	2.109685115069567	0.6993519775049116	-0.1818571484689722	2.116036843447532	0.6907587300906947	-0.1834988174401632
0.8416665937391304	1.96481071892485	0.9249353145743958	-0.1890725451906306	-5.783674866226735	-3.738829660274359	2.914776494015466	24.79176177087398	0.3814727447392549	3.328063335717526	-33.55450223593291	1.804012925097448	-9.330384877165011e-10	2.281848867367529e-09	-0.169659009589446	2.512122315891275	-5.284753625145171	-1.429584922042596	3.87075584170904	-2.536663439876403e-09	-1.126048596315405e-09	-5.799432802675805	3.00383529013117	-1.216954973191746	-0.1493958728930677	4.14841174526692	0.2595670557241549	1.535213983348429	2.304048822096413e-09	-0.1308653631590126	-0.5373098312407878	-0.2396143021878795	0.1094401668036416	1.525705685857243	-3.294842200859743e-10	-0.1299338334482345	8.523875983925106e-09	0.01556909136846785	3.862332361915677e-10	7.591792274974133e-09	-0.01354342180279573	4.809490549142813e-09	2.105835801041647	0.692577839987533	-0.1812245882302914	2.140036636113043	0.6942260185035896	-0.1803435252209716	2.115426379084715	0.698607064408588	-0.181342430357464	2.131371745993655	0.6962778648199773	-0.1804408961745709	2.152130413756051	0.6912630329088877	-0.1818660421328922	2.111387394907777	0.6935994197392727	-0.1816829824315969	2.131171165198125	0.6950356935015829	-0.1819910282759571	2.117117379955142	0.6940278637571252	-0.1825841310573826	2.126162464591475	0.6934905560180257	-0.1806062746173195	2.120078777271831	0.6968702891531254	-0.1814480232907262	2.133723982632453	0.6956796437441786	-0.1836602463388998	2.118083783030738	0.6942427221472565	-0.1823465576592974	2.137999426540022	0.697635396113107	-0.1811120700387928	2.121295985164603	0.698909432685288	-0.181281042622653	2.103592732401666	0.6959021657609612	-0.1807558706234595	2.139418015846467	0.7013446248496665	-0.1823011569171972	2.11104603609348	0.6932667165401923	-0.1842525812709319	2.145134944320723	0.6958540845533043	-0.1819822145510516	2.107175181330981	0.6857599611159778	-0.1820884091598878	2.113277390572919	0.6957100042212702	-0.1816417357693873	2.116530247053606	0.6943390317495409	-0.1807910793917948	2.143480182450011	0.7009616465595769	-0.181422869958512	2.118642937563847	0.6967192602526424	-0.1825943333966114	2.106858931820383	0.6942879776968265	-0.1822180955559461	2.128261989125792	0.6929171703557191	-0.1802180203594336	2.120943930669222	0.6911498916729343	-0.1821643240303495	2.12091134724226	0.6920547386504633	-0.1808028981110969	2.116436793084024	0.6927305776558882	-0.1815393686674771	2.116952125991427	0.6990017154320498	-0.1828768793585584	2.129408928845741	0.6916692607060094	-0.1817476805711456	2.138279219798436	0.691845614481269	-0.1834751634481586	2.115799079162483	0.6950944983819665	-0.1825899776760406	2.115721958090084	0.6931216050380671	-0.1815197717274061	2.139538761869131	0.6911821227213949	-0.1831014197515131	2.107886434983361	0.6970353298484687	-0.1802773937035276	2.116515742813981	0.6992147023027236	-0.1817059230165135	2.126470265026213	0.6897117581959965	-0.1831221751674543
0.8499999273043479	1.97527458686735	0.9249353145743958	-0.1894444040042118	-5.74884062088127	-3.822927832171099	3.195642071536899	25.32886691306064	0.4632172564627605	3.089135452649408	-31.18490040417168	2.202999826798442	-1.372386900101881e-09	3.203438288019605e-09	-1.24767205191685	2.459021677972333	-5.17858059206973	-0.7578798063377812	4.068079090197425	-3.131320390154794e-09	-2.998760672151055e-10	-5.876140100621892	3.083069547380036	-1.538697573401726	-0.1989167342871639	4.228508139198123	0.2619483201275336	1.536276492567977	2.379349272609681e-09	-0.1306932118886618	-0.5707853700960448	-0.05387083560187771	0.09795171246265481	1.526598162396548	7.753629461537575e-10	-0.1299870658339028	8.724156401010518e-09	0.01251008144601877	7.826098486977346e-10	7.333059913266698e-09	-0.01193307939607497	6.055786435026845e-09	2.117665231137222	0.6909289822202203	-0.1810984000900219	2.149739375154177	0.6929728809751452	-0.180276343977924	2.126580824908011	0.698274987727155	-0.1811788371324367	2.142440033023909	0.6954581967941679	-0.1804210959564371	2.161401154606801	0.6903343100166212	-0.1816162731406901	2.121800240773019	0.6919989481925455	-0.1814114798650678	2.140178069392338	0.6936104616798274	-0.1818804422552653	2.124354235434083	0.6930531003852879	-0.1823659906884141	2.137509121162155	0.6924389023666386	-0.1804536557411356	2.128653247618568	0.6958365079930138	-0.1810778106179791	2.144341738182112	0.6944691664159023	-0.1835445823483563	2.129531938941657	0.6927322264375521	-0.1822025890221571	2.150128415287255	0.6959630021449648	-0.1809223658756658	2.132504615929447	0.6984507502655848	-0.1812188980890274	2.115131115108905	0.6953367408055844	-0.1808525464292963	2.148724671526606	0.699402497401107	-0.1823776969711563	2.119178122737527	0.6919406057061724	-0.184195396065097	2.153246549438177	0.6950330138545456	-0.1818874290701518	2.115894614919323	0.68464940760995	-0.1818594681259294	2.124812236031576	0.6940648260170031	-0.1814423293850383	2.126143036979303	0.6934441317426797	-0.1807826341043893	2.153855991946439	0.6990481684136154	-0.1812422347409151	2.129533482144303	0.6950502754678127	-0.1824555840831533	2.117288648134137	0.693335370635528	-0.1821089710069188	2.135839433241709	0.6917336526992979	-0.1803078081115021	2.12966459411677	0.6901133344278469	-0.1820026921094683	2.129577805511442	0.6909537676317608	-0.1807212209453985	2.125653439056257	0.6912568084909119	-0.1815103854474679	2.12573582536564	0.6977609886882666	-0.1826609556144763	2.138411021584189	0.6898812608794161	-0.181597985051053	2.149678236568766	0.6908907526231124	-0.1835833830298733	2.126963963240811	0.6933003113773608	-0.1825943868934148	2.124417702754668	0.6922368012769098	-0.1814192242031831	2.150636822093606	0.6906479613239821	-0.1831118438401653	2.115182122387321	0.6959833493895607	-0.1802226426918661	2.123431307173736	0.6986504823277819	-0.1816186671743904	2.137091931196313	0.6883396279474425	-0.1827450049290124
0.8583332608695653	1.985553804015877	0.9249353145743958	-0.1898197326162732	-5.716172974965832	-3.878528304237366	3.486000389434352	25.82911717254481	0.5295180062360216	2.578173067187501	-28.77009295560279	2.530144752789297	-1.491259316367975e-09	4.219554218641954e-09	-2.308914084279948	2.418096747570734	-5.051804127242733	-0.1150271142232072	4.305736212800364	-3.508070121638498e-09	4.184898644399448e-10	-5.956887564149659	3.117913072607857	-1.8329194356002	-0.2358747957220468	4.116340076318148	0.2587893910595187	1.537028739800418	2.523113138499642e-09	-0.1305742345005738	-0.5734376795707743	0.12219515652488	0.08423264901071822	1.527420729207168	1.802931280462161e-09	-0.1300806735517774	8.844121140236917e-09	0.009076319781786217	1.083392314929595e-09	6.885154174425512e-09	-0.009859097335961213	6.94229378574035e-09	2.129643741539468	0.6891812742223041	-0.1810840210238062	2.159165662357568	0.6915326564489801	-0.1803124590999598	2.137407227905337	0.6974443807915826	-0.1810966941355493	2.153527499647109	0.6942388026324318	-0.1804856709110642	2.17011419590668	0.6893356577320071	-0.1814073355160906	2.132472425500819	0.690151919451482	-0.1811901952666156	2.149254633617921	0.6919718701312322	-0.1818010786652548	2.131999497883554	0.6917737209383736	-0.1821423427919602	2.149019716798062	0.6911479370589528	-0.1803686956351456	2.137446279270901	0.6944292008554741	-0.1807453005270249	2.15506195684792	0.6929299219912685	-0.183420642643793	2.140853012140654	0.6909210739237277	-0.1821087064992675	2.161229043981916	0.6938487274558617	-0.1807741926838937	2.14379121246922	0.6976508819708872	-0.181223456740838	2.127118048901193	0.694295594397904	-0.1809700149217799	2.157959233725577	0.6971721134021873	-0.1824479770444455	2.127731257864325	0.6903116462714918	-0.184110084401623	2.160984023445012	0.6938073477199563	-0.181829326023445	2.124887306963959	0.6834765028811073	-0.1816722344730575	2.136480453565346	0.6922153963381023	-0.1812847778957367	2.135843306190545	0.6922399038079934	-0.1807913522647868	2.16425712881512	0.6966305010630858	-0.1810609841661804	2.140682705603258	0.6929641508230668	-0.1823382120969721	2.128169410515384	0.692096367709777	-0.1820045093648145	2.14383116616943	0.6903098444880872	-0.1804728675112557	2.138709086757331	0.6888245760975276	-0.181881184985231	2.138989519663725	0.6896080910244392	-0.1806784615141303	2.134936329309659	0.6896080766931868	-0.1815349739780726	2.134407789796637	0.6962504720050301	-0.1824362680004565	2.147651052716814	0.6877293492080381	-0.1814940567184837	2.16084957812854	0.6897871759680183	-0.183697328556589	2.137927243453332	0.6914393104398561	-0.1826141586022916	2.133890973473189	0.6912761302974368	-0.1813905997810774	2.161561754872032	0.6899077032016048	-0.1831688235793727	2.123008844394428	0.6946909782466016	-0.1802145349356791	2.130622481057208	0.6976267232697041	-0.1815876182449208	2.14773034492056	0.6866465591173113	-0.1823809406075552
